<?xml version="1.0" standalone="no"?>
<!DOCTYPE svg PUBLIC "-//W3C//DTD SVG 20010904//EN"
 "http://www.w3.org/TR/2001/REC-SVG-20010904/DTD/svg10.dtd">
<svg version="1.0" xmlns="http://www.w3.org/2000/svg"
 width="260.000000pt" height="260.000000pt" viewBox="0 0 260.000000 260.000000"
 preserveAspectRatio="xMidYMid meet">
<metadata>
Created by potrace 1.14, written by Peter Selinger 2001-2017
</metadata>
<g transform="translate(0.000000,260.000000) scale(0.100000,-0.100000)"
fill="#000000" stroke="none">
<path d="M1855 2591 c-3 -5 -2 -12 3 -15 5 -3 9 1 9 9 0 17 -3 19 -12 6z"/>
<path d="M1833 2573 c1 -11 10 -32 20 -46 9 -14 13 -29 8 -32 -5 -3 -12 3 -16
14 -3 11 -13 25 -22 33 -12 9 -15 9 -9 1 4 -7 2 -13 -3 -13 -6 0 -11 -5 -11
-11 0 -8 5 -8 15 1 10 9 15 9 15 1 0 -10 -7 -13 -26 -10 -4 0 -11 -5 -15 -13
-6 -9 -8 -5 -7 12 2 14 8 28 13 32 6 5 6 8 -1 8 -6 0 -17 -7 -24 -15 -8 -9
-17 -12 -24 -6 -17 13 -48 10 -36 -4 6 -7 2 -15 -13 -24 -15 -10 -22 -10 -25
-2 -2 6 -9 11 -15 11 -6 0 -4 -7 5 -17 16 -15 19 -15 44 2 25 16 27 16 21 0
-4 -9 -7 -19 -7 -21 0 -3 -4 -2 -10 1 -5 3 -15 -5 -21 -19 -7 -14 -16 -23 -21
-20 -5 3 -5 11 1 18 14 16 -20 38 -40 25 -11 -8 -10 -9 5 -7 10 2 21 -3 23
-10 3 -7 -1 -10 -9 -7 -8 3 -23 -4 -34 -16 l-19 -21 -5 23 c-3 12 -13 23 -23
25 -9 1 -15 -2 -11 -7 3 -5 10 -7 15 -4 5 4 9 -1 9 -9 0 -19 -17 -30 -22 -14
-2 6 -12 12 -21 14 -9 1 -15 -2 -11 -7 3 -5 9 -7 14 -4 4 3 10 -2 14 -10 3 -8
11 -12 19 -9 8 3 14 -2 14 -11 0 -19 -3 -19 -43 6 -19 11 -34 17 -34 12 0 -4
14 -14 30 -21 17 -8 30 -18 30 -23 0 -11 -23 -7 -32 6 -4 6 -12 10 -18 10 -6
0 -15 7 -20 15 -8 13 -10 12 -10 -2 0 -16 11 -23 33 -19 9 1 9 -13 0 -22 -3
-4 -12 -2 -19 4 -7 6 -21 9 -31 6 -14 -4 -14 -5 4 -6 23 -1 36 -15 39 -41 2
-9 -4 -6 -13 7 -12 18 -19 21 -35 12 -16 -9 -17 -13 -6 -27 11 -14 10 -15 -7
-8 -11 4 -16 4 -13 0 4 -3 0 -13 -8 -21 -8 -8 -11 -20 -7 -26 4 -7 0 -8 -12
-3 -16 6 -16 4 -4 -11 12 -15 12 -16 -3 -10 -10 3 -18 2 -18 -3 0 -6 6 -10 13
-10 7 0 13 -10 14 -21 l2 -21 -24 22 c-19 18 -27 20 -42 10 -16 -10 -16 -10 4
-5 18 5 22 3 17 -9 -3 -9 -11 -16 -17 -16 -6 0 -21 -9 -33 -21 -14 -13 -27
-18 -36 -13 -19 12 -37 14 -43 4 -3 -5 4 -7 15 -5 12 2 24 -3 30 -15 9 -16 14
-18 34 -8 16 7 23 17 21 29 -2 11 0 19 5 19 4 0 15 3 24 6 11 4 14 0 11 -15
-2 -12 -7 -26 -11 -32 -4 -8 1 -9 17 -5 13 3 18 3 11 0 -10 -5 -9 -11 5 -27
16 -19 15 -18 -16 3 l-33 23 6 -24 6 -24 -11 23 c-7 12 -16 22 -21 22 -5 0 -6
-4 -3 -10 6 -10 -10 -15 -30 -10 -5 2 -20 2 -32 2 -13 -1 -23 3 -23 9 0 5 4 8
9 4 5 -3 12 -1 15 4 4 5 -2 8 -11 6 -10 -1 -17 -10 -17 -19 1 -9 -2 -16 -7
-16 -5 0 -9 5 -9 11 0 5 -4 7 -10 4 -5 -3 -10 -11 -10 -17 0 -6 3 -8 6 -5 4 3
16 2 27 -4 10 -6 17 -7 14 -2 -3 5 5 10 18 11 13 1 27 -3 30 -8 4 -6 13 -7 24
-1 14 8 17 6 16 -9 -1 -11 -5 -23 -9 -27 -4 -5 -6 -1 -4 7 2 10 -4 15 -19 14
-13 -1 -20 3 -17 7 3 5 -2 9 -10 9 -9 0 -16 -5 -16 -11 0 -6 -6 -9 -14 -6 -8
3 -22 -3 -32 -14 -19 -21 -6 -26 16 -6 12 10 12 9 0 -6 -7 -10 -19 -16 -25
-13 -7 2 -19 -1 -26 -7 -7 -7 -5 -2 5 11 11 12 17 25 14 28 -3 3 -15 -6 -26
-20 -16 -21 -21 -23 -26 -11 -3 8 -11 15 -17 15 -8 0 -7 -5 2 -17 10 -11 10
-14 2 -9 -8 4 -13 2 -13 -6 0 -8 -4 -7 -11 4 -5 9 -16 15 -24 12 -8 -4 -18 1
-21 10 -3 9 -11 13 -18 9 -6 -4 -6 0 2 9 9 11 10 18 2 23 -5 3 -10 0 -10 -7 0
-7 -11 -1 -24 14 -13 15 -27 24 -30 21 -3 -4 -6 -3 -6 0 0 3 9 11 20 17 17 9
19 8 14 -7 -5 -15 -4 -16 6 -3 9 12 10 11 5 -7 -3 -13 -2 -23 3 -23 11 0 12
32 0 47 -5 7 -5 14 2 18 5 3 10 1 10 -6 0 -7 3 -9 7 -5 4 4 -3 16 -17 26 -14
10 -26 24 -26 29 -3 22 -4 23 -19 11 -8 -7 -15 -9 -15 -5 0 4 -7 1 -17 -6 -13
-11 -17 -11 -20 -1 -3 6 -9 10 -14 7 -5 -4 -6 0 -3 8 7 18 -30 29 -47 13 -11
-9 -11 -8 -1 5 16 22 2 33 -15 11 -13 -15 -13 -15 -4 4 8 17 7 25 -6 35 -14
12 -15 11 -8 -10 5 -16 4 -21 -4 -17 -12 8 -11 56 1 56 4 0 8 -5 8 -11 0 -5 5
-7 12 -3 7 5 8 3 3 -5 -6 -10 -3 -11 13 -2 11 6 22 18 26 28 6 17 5 17 -8 1
-18 -24 -29 -23 -16 1 7 14 7 22 -2 27 -6 4 -8 3 -5 -2 3 -6 2 -16 -3 -24 -7
-12 -12 -11 -29 4 -17 16 -19 22 -8 35 11 14 10 14 -6 2 -12 -10 -15 -17 -7
-25 14 -14 13 -31 -2 -18 -12 10 -18 12 -35 12 -5 0 -1 5 7 10 9 6 10 10 3 10
-6 0 -15 -5 -18 -11 -5 -7 -14 -4 -28 8 -16 13 -18 14 -9 2 10 -14 10 -18 -3
-22 -8 -4 -14 -3 -14 1 1 4 1 14 0 22 -1 13 -3 13 -10 1 -12 -19 6 -54 22 -44
7 4 22 8 34 9 18 1 21 -2 12 -12 -6 -8 -15 -11 -20 -8 -5 3 -9 -3 -10 -13 0
-16 -1 -16 -9 2 -5 11 -9 16 -9 11 -1 -5 -9 -2 -18 5 -15 12 -16 12 -10 -5 6
-15 5 -17 -6 -8 -19 16 -30 3 -14 -17 10 -14 10 -14 -4 -4 -9 7 -20 9 -25 5
-4 -4 -3 0 4 9 11 14 8 20 -15 38 -18 14 -20 18 -7 12 12 -6 25 -7 29 -3 5 4
6 2 2 -3 -3 -6 4 -12 16 -12 20 -2 20 -1 5 11 -14 10 -14 14 -2 22 10 7 11 13
3 24 -9 13 -10 12 -5 -2 5 -17 -8 -26 -17 -10 -2 4 -2 2 -1 -5 2 -7 -1 -15 -6
-18 -6 -4 -10 -1 -10 5 0 6 -4 8 -10 5 -13 -8 -13 8 1 22 8 8 8 13 0 18 -6 3
-11 3 -10 -2 3 -14 -13 -43 -21 -38 -4 3 -19 -5 -34 -16 -14 -11 -26 -16 -26
-10 0 6 -5 11 -10 11 -6 0 -2 -12 7 -27 10 -15 13 -24 6 -20 -7 4 -14 -1 -18
-14 -6 -19 -8 -19 -19 -3 -9 12 -15 14 -20 6 -4 -7 -2 -12 3 -12 6 0 11 -5 11
-12 0 -9 -3 -9 -12 0 -16 16 -53 -4 -39 -22 8 -10 7 -17 -6 -27 -16 -13 -17
-12 -5 3 8 10 9 19 3 22 -5 3 -14 -6 -20 -21 l-11 -28 5 28 c5 25 4 27 -14 15
-15 -9 -17 -16 -10 -25 13 -15 2 -36 -13 -27 -8 5 -9 1 -5 -10 4 -10 7 -19 7
-22 0 -2 8 -1 18 2 14 5 15 4 2 -5 -11 -8 -18 -7 -26 3 -6 9 -15 11 -24 6 -8
-5 -23 -4 -34 1 -16 8 -15 5 4 -10 14 -11 30 -21 35 -21 6 0 3 5 -5 10 -9 6
-10 10 -3 10 6 0 15 -4 18 -10 3 -5 16 -11 28 -11 17 -1 18 -2 4 -6 -9 -2 -14
-9 -11 -15 4 -6 -1 -6 -14 1 -22 12 -55 5 -47 -9 3 -5 -3 -14 -12 -20 -17 -11
-17 -11 0 -6 10 3 21 6 23 6 2 0 4 7 4 15 0 8 4 15 10 15 5 0 9 -6 7 -12 -1
-7 4 -12 11 -11 14 3 15 -6 3 -27 -7 -10 -2 -19 20 -32 16 -10 29 -23 29 -29
0 -5 -13 -1 -28 10 -20 14 -32 17 -43 9 -12 -8 -12 -9 1 -5 9 3 33 -8 54 -23
21 -16 44 -26 52 -23 22 8 5 24 -19 18 -12 -4 -17 -3 -12 2 15 12 18 36 4 27
-8 -4 -9 -3 -5 4 5 9 13 8 30 -3 12 -8 26 -12 31 -8 4 5 4 1 -1 -7 -5 -8 -7
-23 -5 -34 2 -13 -1 -16 -11 -10 -7 4 -10 4 -6 -1 4 -4 3 -17 -3 -29 -10 -20
-10 -20 5 -2 14 18 21 15 17 -6 -1 -11 11 -10 29 2 9 6 20 5 29 -3 12 -9 13
-9 7 1 -4 6 -2 12 3 12 6 0 11 5 11 11 0 6 -5 7 -13 2 -19 -12 -60 -15 -53 -4
3 5 14 8 24 6 9 -1 22 2 29 7 18 14 25 -7 12 -39 -6 -15 -10 -30 -9 -32 1 -2
-4 -8 -12 -13 -11 -8 -11 -9 0 -6 8 2 14 8 15 13 1 10 4 15 35 50 9 12 14 16
10 10 -8 -13 2 -29 19 -32 17 -4 17 14 1 20 -10 4 -10 6 0 6 7 1 15 -6 18 -14
4 -8 11 -12 18 -8 6 4 5 0 -2 -10 -12 -14 -11 -16 7 -14 14 1 20 6 16 15 -2 7
-1 11 4 7 5 -3 12 1 15 7 3 7 3 3 0 -9 -4 -19 -2 -22 13 -16 10 3 16 4 13 2
-39 -33 -52 -42 -47 -32 9 14 -9 27 -18 13 -3 -5 3 -17 14 -27 11 -9 18 -19
16 -23 -2 -3 5 -7 16 -7 18 -2 18 0 -3 17 -29 24 -16 26 19 3 15 -10 24 -12
20 -5 -5 8 -2 12 8 12 9 0 14 -4 10 -9 -3 -5 -1 -12 5 -16 6 -4 8 -10 5 -15
-3 -5 0 -12 6 -16 8 -5 9 -3 4 6 -6 10 -3 12 13 8 30 -8 28 0 -4 12 -23 9 -26
30 -3 30 6 0 8 -4 5 -9 -4 -5 4 -7 16 -3 12 3 19 1 15 -4 -3 -6 -2 -15 2 -22
5 -9 11 -5 19 13 8 17 8 24 2 20 -6 -4 -21 0 -34 8 -16 11 -27 12 -34 5 -6 -6
-12 -6 -16 1 -5 8 -13 8 -26 1 -11 -6 -21 -6 -25 -1 -7 12 12 24 24 16 6 -3
15 3 21 12 10 16 11 16 6 1 -3 -10 -1 -20 4 -23 6 -4 10 -2 10 4 0 5 9 9 19 8
11 0 17 -5 15 -9 -3 -4 0 -8 7 -8 7 0 9 9 6 23 -6 21 -6 21 12 -3 16 -20 21
-22 35 -11 12 10 16 10 16 2 0 -7 5 -9 10 -6 6 4 7 12 3 18 -12 19 -12 37 -1
37 6 0 8 -6 5 -14 -8 -20 4 -28 22 -14 9 7 4 -1 -10 -17 l-25 -30 23 -22 c13
-13 25 -18 29 -12 6 11 -2 23 -17 25 -5 1 -12 2 -16 3 -3 0 2 10 11 20 15 16
22 18 42 9 26 -12 30 -23 12 -34 -7 -5 -8 -3 -3 6 6 9 4 11 -5 5 -8 -5 -11 -4
-7 2 4 6 1 13 -7 16 -23 9 -27 -5 -6 -20 11 -8 18 -18 15 -22 -2 -5 2 -17 10
-27 12 -16 17 -17 34 -6 14 8 21 8 21 1 0 -5 5 -7 11 -3 8 4 7 9 -2 15 -7 4
-16 6 -20 3 -4 -2 -10 0 -14 6 -3 5 1 10 9 10 9 0 16 5 16 10 0 15 -16 12 -31
-6 -10 -13 -10 -17 2 -25 12 -7 11 -9 -2 -9 -26 0 -31 28 -8 40 11 6 17 15 14
19 -3 5 2 12 11 15 8 3 12 2 9 -3 -3 -5 0 -13 6 -16 5 -4 8 -13 5 -21 -3 -9 0
-14 7 -13 20 3 47 -12 47 -27 0 -10 -8 -13 -25 -10 -15 3 -25 0 -25 -7 0 -8
-3 -8 -9 1 -6 10 -10 10 -21 -3 -7 -9 -20 -15 -29 -14 -9 1 -29 -3 -45 -10
-16 -6 -36 -9 -45 -6 -8 3 -12 3 -8 -1 4 -4 -27 -24 -68 -45 -109 -55 -161
-93 -250 -183 -169 -172 -247 -372 -241 -615 5 -177 43 -295 142 -447 310
-474 1021 -527 1406 -104 149 163 221 345 222 560 1 130 -6 188 -35 274 -64
190 -188 350 -359 461 -51 33 -98 60 -104 60 -6 1 -10 6 -9 12 1 6 -5 10 -15
8 -23 -3 -72 22 -72 38 0 8 -4 7 -11 -3 -7 -10 -9 -11 -7 -2 2 8 6 12 10 10 8
-4 48 32 48 44 0 5 -5 6 -12 2 -7 -5 -8 -3 -3 6 6 10 11 10 20 -3 11 -16 13
-15 29 1 9 10 13 22 9 27 -5 4 -2 5 5 1 9 -6 12 -1 8 16 -3 19 1 24 18 25 19
2 19 1 3 -8 -13 -8 -15 -14 -7 -30 6 -10 8 -20 5 -20 -3 -1 -9 -2 -14 -3 -17
-2 -24 -16 -8 -16 8 0 17 -3 20 -7 2 -5 2 -2 1 5 -2 6 1 12 6 12 6 0 10 6 10
13 0 7 9 13 20 14 11 1 18 -2 15 -8 -4 -5 -2 -9 3 -9 14 0 22 27 15 48 -6 15
-5 15 10 4 9 -8 22 -12 29 -9 9 4 8 6 -3 6 -16 1 -23 31 -7 31 5 0 6 5 3 11
-5 7 -12 3 -20 -9 -8 -10 -24 -18 -37 -17 -24 2 -25 5 -8 33 10 15 11 15 6 0
-3 -12 1 -16 15 -15 22 1 25 13 7 21 -7 3 0 3 16 1 16 -2 32 -9 36 -15 5 -8 9
-6 13 5 4 9 3 13 -3 10 -6 -3 -10 1 -10 10 0 10 -5 13 -12 9 -7 -4 -2 5 12 21
l25 27 -25 -6 c-22 -6 -23 -5 -7 5 14 8 22 8 30 0 21 -21 30 -11 11 11 -19 22
-19 22 0 8 18 -14 19 -13 13 5 -7 20 -7 20 8 1 14 -18 20 -15 15 9 -1 5 1 7 5
3 11 -11 44 24 38 41 -4 12 -3 13 4 3 5 -7 17 -10 27 -6 15 6 15 7 1 18 -15
10 -14 12 4 12 11 0 18 -4 15 -7 -2 -4 0 -10 6 -14 5 -3 10 -1 10 5 0 6 5 8
10 5 17 -11 11 -24 -9 -20 -15 3 -19 -1 -16 -15 3 -14 -1 -17 -13 -13 -15 4
-15 3 -2 -7 13 -10 13 -11 0 -7 -8 2 -14 10 -12 17 1 6 -3 10 -10 7 -7 -2 -12
-10 -10 -16 1 -7 -2 -9 -9 -5 -8 5 -9 3 -4 -6 6 -9 4 -11 -5 -5 -9 6 -11 4 -5
-5 5 -9 4 -11 -3 -6 -18 11 -14 0 5 -15 9 -8 14 -9 10 -3 -12 21 19 37 44 24
12 -7 19 -8 16 -3 -2 4 7 19 21 33 15 16 23 19 19 9 -5 -14 -2 -15 19 -5 22
10 22 11 4 14 -11 2 -20 8 -20 13 0 13 23 11 46 -5 18 -13 20 -12 21 5 2 16
-3 19 -20 13 -21 -6 -21 -6 -4 12 18 19 19 18 33 0 8 -12 14 -15 14 -7 0 8 8
11 20 8 17 -4 18 -2 9 14 -14 27 6 24 25 -3 9 -12 16 -18 16 -14 0 5 -7 18
-16 28 -13 13 -14 21 -6 31 9 10 8 17 0 25 -9 9 -9 15 1 25 10 10 11 8 5 -7
-6 -15 -4 -18 9 -13 12 4 14 2 10 -11 -5 -13 -3 -14 7 -5 7 6 19 9 26 6 25 -9
15 6 -13 21 -16 8 -23 15 -18 16 6 0 23 -8 38 -19 23 -15 25 -20 14 -29 -8 -7
-17 -9 -20 -5 -4 3 -7 1 -7 -5 0 -15 17 -16 25 -2 5 8 12 7 23 -2 15 -11 15
-11 5 3 -13 16 -8 29 9 29 5 0 7 -4 3 -9 -3 -5 0 -13 6 -17 7 -4 9 -3 5 4 -10
17 13 25 32 10 15 -12 16 -11 3 5 -8 9 -11 20 -7 24 3 4 13 -2 20 -13 14 -19
14 -19 13 1 -1 11 3 19 11 17 6 -1 12 2 12 8 0 14 -13 13 -28 -2 -7 -7 -12 -8
-12 -2 0 5 5 15 11 21 8 8 7 13 -2 18 -8 6 -10 4 -4 -5 6 -9 4 -11 -5 -5 -9 6
-11 4 -5 -5 6 -9 4 -11 -5 -5 -9 6 -11 4 -5 -5 6 -9 4 -11 -5 -5 -9 6 -11 4
-5 -5 6 -9 4 -11 -5 -5 -9 6 -11 4 -5 -5 5 -8 4 -11 -1 -7 -6 3 -16 2 -24 -3
-16 -10 -40 5 -40 24 0 6 5 3 11 -7 8 -14 14 -15 30 -6 20 10 20 11 3 30 -16
18 -16 19 -1 13 9 -3 17 -10 17 -16 0 -5 5 -6 10 -3 7 4 7 12 2 18 -5 7 -9 23
-10 37 -1 18 1 21 8 11 4 -8 5 -21 2 -30 -5 -13 -3 -14 10 -4 8 7 18 10 21 6
4 -3 7 -3 7 2 0 4 -8 14 -17 21 -17 13 -17 14 0 8 13 -5 16 -2 11 12 -6 18 -6
18 8 0 19 -24 41 -12 33 17 -5 17 1 15 26 -13 31 -34 31 -23 1 13 -16 18 -3
24 14 7 8 -8 15 -5 25 7 13 16 12 17 -3 5 -10 -8 -19 -9 -22 -3 -4 5 -2 12 4
16 5 3 10 12 10 18 0 7 -7 4 -14 -5 -17 -23 -21 -23 -23 2 -1 13 3 18 10 14 7
-3 1 3 -12 14 -15 12 -20 22 -13 26 16 9 3 36 -17 36 -14 0 -14 2 -1 11 12 9
11 10 -5 4 -47 -16 -56 -15 -50 5 4 12 2 20 -5 20 -8 0 -10 9 -7 23 6 21 6 21
-8 3 -12 -16 -12 -22 -2 -29 9 -6 8 -7 -3 -4 -8 2 -14 11 -14 20 1 8 -5 14
-15 12 -9 -1 -20 3 -24 9 -6 7 -6 4 -3 -7 4 -13 0 -20 -13 -24 -21 -5 -35 -29
-25 -44 3 -5 3 -9 0 -9 -5 0 -36 59 -36 69 0 3 5 -1 10 -9 9 -13 10 -13 10 0
0 11 2 12 8 3 5 -8 13 -9 22 -3 13 8 12 10 -3 10 -12 0 -16 5 -11 13 5 9 4 9
-7 -1 -11 -10 -17 -8 -31 10 l-18 23 -17 -22 c-15 -19 -21 -20 -35 -9 -10 7
-15 15 -13 18 3 3 -6 10 -20 16 -15 7 -25 8 -25 2 0 -6 6 -10 14 -10 19 0 29
-31 15 -44 -9 -8 -10 -8 -5 1 4 8 -9 22 -34 38 -42 27 -90 48 -61 27 17 -12
24 -45 9 -40 -5 2 -9 7 -8 12 1 5 -4 12 -11 17 -7 4 -14 15 -15 24 -1 9 -5 20
-8 23 -4 3 -5 -3 -3 -15z m-88 -53 c5 -8 11 -7 21 1 12 10 14 7 12 -12 -2 -17
1 -23 12 -20 8 2 21 4 28 4 6 0 12 5 12 11 0 6 5 3 11 -6 9 -16 12 -16 33 -3
12 8 27 12 31 8 5 -5 3 0 -4 10 -16 21 -9 22 29 2 19 -10 27 -20 24 -30 -8
-20 10 -19 27 1 12 14 14 14 24 0 10 -14 14 -12 25 9 7 14 17 25 22 25 5 0 6
-4 3 -10 -3 -5 -1 -10 5 -10 7 0 8 -5 1 -17 -6 -12 -5 -20 6 -29 13 -9 13 -13
3 -19 -9 -5 -11 -4 -6 3 4 7 2 12 -5 12 -6 0 -9 -8 -6 -20 3 -12 1 -18 -5 -14
-5 3 -8 15 -5 25 6 24 -6 24 -29 2 -16 -16 -16 -16 -10 5 5 13 3 22 -3 22 -11
0 -15 -12 -12 -40 1 -8 -5 -4 -12 9 -14 23 -15 23 -26 5 -11 -17 -11 -16 -5 6
5 21 4 23 -7 12 -15 -14 -19 -34 -7 -42 4 -3 -3 -12 -15 -19 -20 -13 -21 -13
-9 2 11 13 10 17 -7 26 -25 14 -34 14 -26 1 3 -6 -1 -7 -10 -4 -10 4 -13 13
-9 26 4 15 3 18 -6 13 -8 -5 -18 -1 -27 10 -7 11 -13 13 -13 6 0 -7 -4 -10 -9
-6 -5 3 -12 1 -16 -4 -3 -6 3 -8 14 -6 11 2 22 -3 25 -10 3 -10 0 -12 -11 -8
-11 4 -14 2 -9 -5 4 -7 2 -12 -3 -12 -6 0 -11 5 -11 11 0 5 -4 8 -10 4 -5 -3
-7 -13 -4 -23 4 -11 3 -13 -3 -5 -6 8 -12 8 -25 -1 -10 -7 -14 -17 -10 -22 4
-4 -2 -2 -12 6 -18 14 -19 13 -13 -3 4 -11 3 -16 -4 -12 -6 4 -8 13 -5 21 3 7
1 16 -4 19 -6 4 -10 1 -10 -5 0 -7 -6 -10 -13 -7 -8 3 -14 -1 -14 -8 0 -7 6
-11 14 -8 7 3 13 -1 13 -8 0 -7 -3 -9 -7 -5 -4 3 -13 -4 -20 -16 -13 -22 -14
-22 -8 -1 5 17 2 21 -12 18 -10 -2 -20 -4 -23 -4 -3 -1 2 -6 10 -11 9 -6 11
-10 3 -10 -7 0 -19 -12 -28 -27 -10 -18 -14 -21 -11 -8 3 11 1 27 -5 35 -9 13
-10 13 -6 -2 7 -19 -17 -43 -33 -33 -5 3 -10 2 -10 -4 0 -5 4 -11 9 -13 5 -1
3 -12 -4 -22 -12 -16 -17 -17 -30 -6 -18 15 -21 0 -3 -18 9 -9 9 -12 -1 -12
-7 0 -9 -5 -6 -10 4 -6 10 -8 14 -6 4 3 7 -6 7 -19 0 -14 -2 -22 -5 -19 -4 3
-6 11 -6 17 0 7 -7 12 -15 12 -9 0 -14 -8 -12 -20 2 -16 1 -17 -7 -5 -10 14
-16 7 -12 -14 1 -5 -5 -3 -14 4 -13 11 -14 10 -9 -5 5 -13 3 -16 -7 -13 -9 3
-13 17 -12 44 4 63 5 65 30 81 17 11 21 19 13 28 -8 9 -7 14 3 18 7 3 19 -4
25 -14 17 -27 31 -23 29 8 -2 22 2 28 18 28 11 0 31 8 45 18 13 9 19 17 12 17
-7 0 -2 12 12 27 24 26 26 26 45 9 20 -18 21 -18 33 8 12 27 12 27 23 5 10
-19 13 -19 18 -5 4 10 3 15 -3 11 -13 -8 -13 1 1 26 7 15 7 24 -2 35 -7 9 -8
14 -1 14 6 0 14 -5 17 -10z m459 -67 c6 3 12 -6 12 -19 1 -13 -2 -24 -8 -24
-5 0 -7 4 -4 9 3 5 -2 15 -11 22 -14 12 -15 11 -8 -10 5 -16 4 -21 -4 -17 -6
4 -11 14 -11 22 0 8 -5 14 -11 14 -5 0 -8 -4 -5 -8 2 -4 -4 -9 -15 -9 -25 -2
-24 5 3 34 l21 23 15 -21 c8 -11 19 -18 26 -16z m-360 -31 c2 -4 -4 -9 -15 -9
-11 -1 -17 2 -14 8 7 11 22 12 29 1z m123 -7 c0 -8 -4 -12 -9 -9 -5 3 -6 10
-3 15 9 13 12 11 12 -6z m60 8 c-4 -3 1 -16 10 -27 18 -21 18 -21 -4 -2 -20
16 -23 36 -6 36 4 0 3 -3 0 -7z m262 -7 c6 -4 9 -12 6 -17 -9 -13 -26 -11 -22
2 1 6 -5 14 -13 16 -13 4 -13 3 0 -6 8 -6 11 -11 5 -11 -5 0 1 -9 14 -19 21
-16 22 -20 11 -42 -12 -21 -11 -22 2 -12 12 10 15 10 15 0 0 -16 -29 -19 -39
-4 -8 14 2 38 13 31 5 -3 9 -1 9 3 0 13 -39 34 -45 24 -3 -5 1 -11 7 -14 7 -2
11 -7 8 -10 -3 -3 -12 -2 -20 3 -12 7 -12 12 -2 22 6 6 12 17 12 22 0 6 -5 5
-12 -2 -7 -7 -17 -12 -22 -12 -6 0 -3 5 7 11 9 6 15 14 12 19 -6 10 36 7 54
-4z m-485 -12 c3 -8 2 -12 -4 -9 -6 3 -10 1 -10 -6 0 -7 -2 -10 -5 -7 -5 5 4
38 10 38 2 0 6 -7 9 -16z m284 -9 c-3 -3 -9 2 -12 12 -6 14 -5 15 5 6 7 -7 10
-15 7 -18z m83 8 c13 -16 12 -17 -3 -4 -10 7 -18 15 -18 17 0 8 8 3 21 -13z
m-46 -13 c10 -11 16 -20 13 -20 -3 0 -13 9 -23 20 -10 11 -16 20 -13 20 3 0
13 -9 23 -20z m-355 6 c0 -2 -7 -9 -15 -16 -13 -11 -14 -10 -9 4 5 14 24 23
24 12z m-87 -43 c-5 -12 -3 -14 8 -8 8 5 11 4 6 0 -4 -5 -14 -10 -22 -11 -12
-2 -12 2 -5 17 13 23 22 25 13 2z m-39 -12 c3 -4 -4 -17 -15 -27 -18 -16 -19
-16 -13 -1 3 9 10 17 16 17 5 0 6 5 3 10 -3 6 -4 10 -1 10 3 0 7 -4 10 -9z
m-994 -43 c0 -5 -4 -8 -10 -8 -5 0 -10 5 -10 11 0 5 -4 8 -10 4 -5 -3 -8 -11
-6 -18 1 -7 1 -9 -1 -4 -8 13 -23 7 -17 -7 3 -8 1 -17 -5 -21 -7 -4 -8 0 -4
11 5 13 3 15 -8 9 -8 -4 -11 -5 -7 0 4 4 3 14 -3 21 -7 9 -4 16 12 28 20 13
24 13 45 -2 13 -9 24 -20 24 -24z m173 -16 c-4 -10 -8 -12 -11 -4 -2 7 -8 12
-13 12 -6 0 -7 -5 -3 -12 4 -7 3 -8 -4 -4 -7 4 -12 2 -12 -5 0 -7 -3 -10 -6
-7 -3 4 2 18 11 32 13 20 21 24 31 15 7 -6 10 -18 7 -27z m761 3 c-4 -8 -11
-12 -17 -8 -8 5 -7 8 1 11 7 2 9 9 6 14 -4 7 -2 8 4 4 6 -4 9 -13 6 -21z m676
21 c0 -2 -9 -6 -20 -9 -11 -3 -18 -1 -14 4 5 9 34 13 34 5z m24 -22 c3 -8 2
-12 -4 -9 -6 3 -10 10 -10 16 0 14 7 11 14 -7z m-1719 -35 c-4 -5 -12 -9 -18
-8 -9 0 -8 2 1 6 6 2 9 10 6 15 -4 7 -2 8 5 4 6 -4 9 -12 6 -17z m20 -28 c3
-5 2 -12 -3 -15 -5 -3 -9 1 -9 9 0 17 3 19 12 6z m321 -26 c1 -8 -1 -17 -5
-19 -4 -3 -7 6 -7 19 0 25 8 25 12 0z m100 6 c-3 -5 1 -14 9 -21 8 -7 15 -16
15 -20 0 -9 -51 -32 -58 -26 -2 3 7 10 22 15 30 12 35 23 9 20 -42 -4 -48 1
-23 21 28 22 34 24 26 11z m414 -42 c0 -5 -8 -9 -17 -9 -15 0 -16 2 -3 10 12
8 12 10 1 10 -8 0 -11 3 -8 7 4 3 3 11 -1 18 -4 6 1 2 11 -8 9 -11 17 -23 17
-28z m141 34 c13 -16 12 -17 -3 -4 -10 7 -18 15 -18 17 0 8 8 3 21 -13z m579
3 c-7 -7 -13 -7 -20 0 -6 6 -3 10 10 10 13 0 16 -4 10 -10z m45 -6 c3 -5 1
-10 -4 -10 -6 0 -11 5 -11 10 0 6 2 10 4 10 3 0 8 -4 11 -10z m-700 -20 c-3
-5 -12 -10 -18 -10 -7 0 -6 4 3 10 19 12 23 12 15 0z m-1051 -8 c3 -5 -1 -9
-9 -9 -8 0 -12 4 -9 9 3 4 7 8 9 8 2 0 6 -4 9 -8z m900 -6 c-3 -8 -13 -17 -22
-21 -13 -5 -13 -2 3 15 21 24 26 25 19 6z m201 -16 c3 -6 -1 -7 -9 -4 -18 7
-21 14 -7 14 6 0 13 -4 16 -10z m435 0 c0 -5 -5 -10 -11 -10 -5 0 -7 5 -4 10
3 6 8 10 11 10 2 0 4 -4 4 -10z m35 -10 c-3 -5 -1 -11 5 -15 5 -3 10 -1 10 4
0 6 5 11 11 11 5 0 7 -4 4 -10 -3 -5 -2 -10 3 -10 18 0 21 29 4 33 -16 4 -16
5 0 6 27 2 31 -16 8 -39 -12 -12 -15 -20 -7 -20 8 0 7 -3 -3 -10 -14 -9 -40 4
-38 18 0 4 -1 9 -2 12 -7 19 -7 39 1 34 5 -3 7 -9 4 -14z m-64 -33 c-10 -9
-11 -8 -5 6 3 10 9 15 12 12 3 -3 0 -11 -7 -18z m-1478 -2 c4 -8 3 -16 -1 -19
-4 -3 -9 4 -9 15 -2 23 3 25 10 4z m1517 -14 c-6 -12 -15 -19 -20 -16 -5 3
-11 1 -15 -5 -4 -6 -11 -5 -21 4 -19 20 -18 32 2 15 13 -10 17 -10 25 2 7 12
9 12 9 -1 1 -8 6 -4 11 9 5 13 12 21 15 18 3 -3 1 -15 -6 -26z m-975 10 c3 -5
2 -12 -3 -15 -5 -3 -9 1 -9 9 0 17 3 19 12 6z m-578 -16 c0 -8 -4 -12 -8 -10
-4 3 -6 -6 -5 -20 0 -14 6 -23 11 -21 6 2 9 9 7 15 -1 7 2 10 7 7 5 -4 12 0
14 6 3 8 6 8 6 2 1 -6 -7 -20 -17 -31 -15 -18 -20 -19 -36 -7 -17 12 -17 17
-6 44 13 32 27 40 27 15z m860 -21 c-3 -3 -12 -4 -19 -1 -8 3 -5 6 6 6 11 1
17 -2 13 -5z m-239 -22 c2 -7 9 -9 14 -6 7 5 8 2 3 -6 -6 -10 -11 -10 -20 3
-7 9 -14 14 -17 11 -4 -3 -9 -1 -12 4 -3 6 2 9 11 8 9 -2 19 -8 21 -14z m762
-14 c0 -19 -16 -5 -17 14 -2 18 0 20 7 8 5 -8 10 -18 10 -22z m-1304 0 c4 -7
3 -8 -4 -4 -7 4 -12 3 -12 -3 0 -6 -8 -7 -17 -4 -17 7 -15 8 24 22 1 1 5 -4 9
-11z m1269 2 c3 -6 -1 -7 -9 -4 -18 7 -21 14 -7 14 6 0 13 -4 16 -10z m-615
-14 c0 -3 -4 -8 -10 -11 -5 -3 -10 -1 -10 4 0 6 5 11 10 11 6 0 10 -2 10 -4z
m-636 -32 c3 -8 2 -12 -4 -9 -6 3 -10 1 -10 -4 0 -6 5 -11 10 -11 6 0 10 -5
10 -12 0 -6 -3 -8 -7 -5 -3 4 -13 1 -21 -6 -13 -10 -14 -9 -7 3 5 8 10 20 11
25 0 6 2 16 2 23 3 16 9 15 16 -4z m31 6 c3 -6 -1 -7 -9 -4 -18 7 -21 14 -7
14 6 0 13 -4 16 -10z m495 -5 c0 -2 -9 -3 -19 -2 -11 0 -18 5 -15 9 4 6 34 0
34 -7z m40 1 c-7 -7 -13 -7 -20 0 -6 6 -3 10 10 10 13 0 16 -4 10 -10z m85 4
c-3 -5 -12 -10 -18 -10 -7 0 -6 4 3 10 19 12 23 12 15 0z m-45 -20 c0 -5 -2
-10 -4 -10 -3 0 -8 5 -11 10 -3 6 -1 10 4 10 6 0 11 -4 11 -10z m-520 -14 c0
-3 -4 -8 -10 -11 -5 -3 -10 -1 -10 4 0 6 5 11 10 11 6 0 10 -2 10 -4z m460 -1
c0 -7 -30 -13 -34 -7 -3 4 4 9 15 9 10 1 19 0 19 -2z m623 -32 c-7 -2 -19 -2
-25 0 -7 3 -2 5 12 5 14 0 19 -2 13 -5z m-946 -30 c1 -24 0 -25 -6 -8 -7 17
-6 35 2 35 2 0 3 -12 4 -27z m123 23 c0 -3 -4 -8 -10 -11 -5 -3 -10 -1 -10 4
0 6 5 11 10 11 6 0 10 -2 10 -4z m737 -31 c0 -8 -4 -12 -9 -9 -5 3 -6 10 -3
15 9 13 12 11 12 -6z m-637 -15 c0 -5 -4 -10 -10 -10 -5 0 -10 5 -10 10 0 6 5
10 10 10 6 0 10 -4 10 -10z m80 6 c0 -2 -7 -7 -16 -10 -8 -3 -12 -2 -9 4 6 10
25 14 25 6z m514 -12 c3 -8 2 -12 -4 -9 -6 3 -10 10 -10 16 0 14 7 11 14 -7z
m-559 -4 c-3 -5 -12 -10 -18 -10 -7 0 -6 4 3 10 19 12 23 12 15 0z m61 -16
c-1 -8 -6 -17 -12 -21 -5 -4 -6 -4 -2 1 4 5 3 14 -2 21 -7 8 -5 12 4 12 8 0
13 -6 12 -13z m614 -14 c0 -3 -13 -5 -30 -5 -16 -1 -30 3 -30 7 0 8 16 12 33
9 4 0 7 5 7 12 0 8 4 7 10 -3 5 -8 10 -17 10 -20z m-109 -3 c-6 -8 -8 -17 -4
-20 3 -4 1 -7 -5 -7 -15 0 -15 13 0 28 16 16 23 15 9 -1z m-468 -27 c3 -11 1
-18 -4 -14 -5 3 -9 12 -9 20 0 20 7 17 13 -6z m31 12 c3 -5 -1 -9 -9 -9 -8 0
-12 4 -9 9 3 4 7 8 9 8 2 0 6 -4 9 -8z m376 -43 c0 -4 -11 -6 -24 -5 -13 0
-22 4 -20 8 6 9 44 6 44 -3z"/>
<path d="M1926 2498 c5 -7 0 -9 -13 -6 -27 7 -46 -5 -48 -31 -1 -11 2 -18 6
-15 5 3 19 0 31 -7 13 -6 20 -8 15 -4 -4 5 0 17 10 27 9 10 12 18 7 18 -5 0
-3 4 4 9 11 7 10 9 -3 14 -10 5 -14 3 -9 -5z m-33 -29 c-8 -8 -13 -7 -18 2 -5
8 -4 10 3 5 7 -4 12 -2 12 5 0 7 3 9 7 6 4 -4 2 -12 -4 -18z m37 7 c0 -2 -7
-9 -15 -16 -13 -11 -14 -10 -9 4 5 14 24 23 24 12z"/>
<path d="M1749 2490 c-1 -8 -1 -19 0 -23 1 -4 -4 -17 -10 -29 -11 -21 -12 -21
-25 -3 -8 10 -14 14 -14 8 0 -6 6 -16 14 -22 16 -14 65 21 62 44 -3 23 -26 43
-27 25z"/>
<path d="M2030 2480 c-8 -15 -8 -18 3 -14 8 3 14 11 14 19 0 20 -4 19 -17 -5z"/>
<path d="M1979 2473 c-13 -16 -12 -17 4 -4 9 7 17 15 17 17 0 8 -8 3 -21 -13z"/>
<path d="M1625 2420 c-10 -11 -14 -20 -9 -20 5 0 0 -7 -10 -15 -11 -8 -14 -15
-7 -15 7 0 9 -5 5 -12 -4 -7 -3 -8 5 -4 6 4 9 11 6 16 -5 9 13 25 29 25 12 0
17 33 6 40 -4 2 -15 -4 -25 -15z m22 -3 c0 -8 -6 -14 -14 -14 -9 0 -10 4 -2
14 6 7 12 13 14 13 1 0 2 -6 2 -13z"/>
<path d="M1533 2346 c0 -14 34 -19 42 -5 4 5 3 9 -2 10 -4 0 -15 2 -24 4 -9 1
-16 -3 -16 -9z"/>
<path d="M1483 2326 c4 -5 0 -17 -8 -26 -17 -18 -10 -54 8 -43 6 3 7 1 3 -6
-6 -9 -11 -9 -21 -1 -10 8 -15 8 -21 -2 -12 -18 -12 -32 1 -40 15 -11 56 42
50 63 -6 19 10 35 20 19 7 -12 25 -4 25 11 0 6 -5 7 -11 4 -5 -4 -20 1 -32 11
-12 11 -19 15 -14 10z m5 -36 c-7 -10 -14 -17 -17 -15 -4 4 18 35 25 35 2 0
-1 -9 -8 -20z m-24 -61 c-3 -5 -10 -7 -15 -3 -5 3 -7 10 -3 15 3 5 10 7 15 3
5 -3 7 -10 3 -15z"/>
<path d="M2139 2453 c-13 -16 -12 -17 3 -5 9 8 23 10 29 6 8 -4 9 -3 5 4 -10
17 -21 15 -37 -5z"/>
<path d="M574 2309 c-9 -15 14 -18 32 -4 18 13 18 14 -4 12 -13 -1 -26 -5 -28
-8z"/>
<path d="M2015 2101 c-3 -5 -2 -12 3 -15 5 -3 9 1 9 9 0 17 -3 19 -12 6z"/>
<path d="M1953 2575 c0 -8 4 -12 9 -9 5 3 6 10 3 15 -9 13 -12 11 -12 -6z"/>
<path d="M1733 2564 c0 -7 4 -11 8 -8 4 2 9 -1 11 -8 3 -7 7 -8 11 -2 3 5 -2
15 -12 21 -14 9 -18 8 -18 -3z"/>
<path d="M1798 2563 c7 -3 16 -2 19 1 4 3 -2 6 -13 5 -11 0 -14 -3 -6 -6z"/>
<path d="M1910 2561 c0 -5 5 -13 10 -16 6 -3 10 -2 10 4 0 5 -4 13 -10 16 -5
3 -10 2 -10 -4z"/>
<path d="M1974 2558 c-4 -7 -3 -8 4 -4 7 4 12 3 12 -1 0 -5 7 -18 15 -29 14
-17 14 -15 0 14 -17 35 -20 37 -31 20z"/>
<path d="M2015 2560 c-3 -5 -1 -10 4 -10 6 0 11 5 11 10 0 6 -2 10 -4 10 -3 0
-8 -4 -11 -10z"/>
<path d="M2147 2559 c7 -7 15 -10 18 -7 3 3 -2 9 -12 12 -14 6 -15 5 -6 -5z"/>
<path d="M1644 2535 c-5 -11 -10 -12 -18 -5 -9 7 -12 4 -11 -10 1 -11 5 -23
10 -27 4 -5 5 -2 1 5 -4 6 -3 12 3 12 6 0 15 9 21 20 6 11 8 20 5 20 -3 0 -8
-7 -11 -15z"/>
<path d="M2070 2545 c0 -5 5 -17 10 -25 5 -8 10 -10 10 -5 0 6 -5 17 -10 25
-5 8 -10 11 -10 5z"/>
<path d="M2095 2540 c3 -5 8 -10 11 -10 2 0 4 5 4 10 0 6 -5 10 -11 10 -5 0
-7 -4 -4 -10z"/>
<path d="M2125 2519 c-4 -6 -5 -12 -2 -15 2 -3 7 2 10 11 7 17 1 20 -8 4z"/>
<path d="M2152 2525 c3 -3 16 -8 28 -10 12 -2 20 -1 16 2 -4 4 -16 8 -28 10
-12 2 -19 1 -16 -2z"/>
<path d="M1581 2495 c0 -5 6 -18 14 -29 13 -18 14 -18 12 2 0 11 -4 19 -8 16
-4 -2 -10 2 -12 8 -3 7 -6 9 -6 3z"/>
<path d="M2290 2481 c0 -6 4 -13 10 -16 6 -3 7 1 4 9 -7 18 -14 21 -14 7z"/>
<path d="M1506 2461 c-4 -5 3 -7 14 -4 23 6 26 13 6 13 -8 0 -17 -4 -20 -9z"/>
<path d="M2245 2460 c-3 -5 -2 -10 4 -10 5 0 13 5 16 10 3 6 2 10 -4 10 -5 0
-13 -4 -16 -10z"/>
<path d="M1460 2400 c-9 -6 -10 -10 -3 -10 6 0 15 5 18 10 8 12 4 12 -15 0z"/>
<path d="M576 2382 c-2 -4 -1 -14 4 -22 7 -11 9 -9 7 8 -1 24 -3 26 -11 14z"/>
<path d="M756 2367 c3 -10 9 -15 12 -12 3 3 0 11 -7 18 -10 9 -11 8 -5 -6z"/>
<path d="M1435 2360 c-3 -5 -1 -10 4 -10 6 0 11 5 11 10 0 6 -2 10 -4 10 -3 0
-8 -4 -11 -10z"/>
<path d="M550 2350 c-13 -8 -12 -10 3 -10 9 0 17 5 17 10 0 12 -1 12 -20 0z"/>
<path d="M2370 2339 c0 -5 5 -7 10 -4 6 3 10 8 10 11 0 2 -4 4 -10 4 -5 0 -10
-5 -10 -11z"/>
<path d="M498 2317 c9 -10 6 -17 -8 -29 -15 -13 -19 -14 -24 -3 -3 8 3 16 12
19 13 3 12 4 -3 3 -11 -1 -27 3 -35 7 -10 6 -9 2 3 -11 12 -14 15 -23 8 -28
-6 -3 -11 -2 -11 3 0 6 -7 13 -16 16 -14 5 -15 4 -5 -8 10 -11 8 -17 -10 -29
-12 -9 -29 -13 -38 -10 -13 4 -13 3 -2 -5 11 -8 10 -12 -6 -21 -11 -5 -24 -7
-28 -3 -5 4 -4 1 0 -7 6 -11 4 -13 -11 -8 -19 7 -19 7 0 -8 10 -8 22 -12 27
-10 4 3 10 1 14 -5 6 -10 -7 -14 -34 -11 -7 2 -10 -2 -7 -8 9 -14 44 -9 51 7
3 7 9 10 15 7 5 -3 10 -2 10 4 0 5 -6 12 -12 14 -9 4 -5 12 12 25 13 11 27 19
31 16 10 -6 30 22 21 31 -4 5 1 5 10 2 9 -3 22 1 29 9 8 10 15 11 24 4 9 -8
14 -7 18 3 3 8 -3 21 -14 31 -23 19 -36 21 -21 3z m-57 -61 c-1 -3 -2 -5 -3
-4 -2 2 -18 -8 -36 -21 -22 -15 -31 -29 -27 -39 4 -12 2 -12 -8 -4 -8 7 -17
10 -20 7 -4 -3 -6 -3 -4 -1 1 2 22 20 47 39 42 32 53 37 51 23z"/>
<path d="M1322 2304 c10 -10 20 -16 22 -13 3 3 -5 11 -17 18 -21 13 -21 12 -5
-5z"/>
<path d="M355 2300 c3 -5 8 -10 11 -10 2 0 4 5 4 10 0 6 -5 10 -11 10 -5 0 -7
-4 -4 -10z"/>
<path d="M902 2290 c-7 -12 -18 -18 -25 -14 -7 4 -3 -2 7 -15 11 -12 25 -20
32 -17 6 2 16 -6 22 -20 11 -23 12 -23 41 -6 16 9 27 21 23 26 -3 6 -7 5 -10
-2 -2 -7 -8 -12 -13 -12 -6 0 -8 4 -4 9 3 6 -3 8 -14 6 -14 -2 -18 1 -14 11 6
17 -9 18 -25 2 -10 -10 -12 -8 -9 11 2 12 10 27 18 32 12 7 12 9 -1 9 -8 0
-21 -9 -28 -20z m63 -60 c3 -5 1 -10 -4 -10 -6 0 -11 5 -11 10 0 6 2 10 4 10
3 0 8 -4 11 -10z"/>
<path d="M950 2290 c0 -5 5 -10 11 -10 5 0 7 5 4 10 -3 6 -8 10 -11 10 -2 0
-4 -4 -4 -10z"/>
<path d="M385 2279 c-4 -6 -4 -13 -1 -16 3 -4 6 -1 6 6 0 7 5 9 12 5 7 -4 8
-3 4 4 -9 15 -13 15 -21 1z"/>
<path d="M1365 2279 c-3 -4 2 -6 10 -5 21 3 28 13 10 13 -9 0 -18 -4 -20 -8z"/>
<path d="M2355 2281 c-3 -5 -2 -12 3 -15 5 -3 9 1 9 9 0 17 -3 19 -12 6z"/>
<path d="M1010 2260 c0 -5 5 -10 11 -10 5 0 7 5 4 10 -3 6 -8 10 -11 10 -2 0
-4 -4 -4 -10z"/>
<path d="M2297 2259 c-9 -5 -21 -8 -25 -5 -4 2 -8 -4 -8 -15 0 -10 6 -19 14
-19 8 0 10 -5 6 -12 -6 -10 -4 -10 8 0 11 9 33 64 24 62 0 0 -9 -5 -19 -11z
m3 -25 c0 -8 -5 -12 -10 -9 -6 4 -8 11 -5 16 9 14 15 11 15 -7z"/>
<path d="M330 2240 c0 -5 5 -10 10 -10 6 0 10 5 10 10 0 6 -4 10 -10 10 -5 0
-10 -4 -10 -10z"/>
<path d="M1236 2242 c-3 -5 1 -9 9 -9 8 0 12 4 9 9 -3 4 -7 8 -9 8 -2 0 -6 -4
-9 -8z"/>
<path d="M2386 2238 c3 -5 10 -6 15 -3 13 9 11 12 -6 12 -8 0 -12 -4 -9 -9z"/>
<path d="M1311 2227 c-8 -10 -7 -14 2 -14 8 0 14 6 14 14 0 7 -1 13 -2 13 -2
0 -8 -6 -14 -13z"/>
<path d="M1024 2223 c4 -4 16 -8 28 -10 28 -4 18 6 -12 12 -12 2 -20 1 -16 -2z"/>
<path d="M2311 2207 c-13 -21 -12 -21 5 -5 10 10 16 20 13 22 -3 3 -11 -5 -18
-17z"/>
<path d="M280 2206 c0 -2 8 -10 18 -17 15 -13 16 -12 3 4 -13 16 -21 21 -21
13z"/>
<path d="M1256 2193 c-6 -14 -5 -15 5 -6 7 7 10 15 7 18 -3 3 -9 -2 -12 -12z"/>
<path d="M1055 2191 c-3 -5 -2 -12 3 -15 5 -3 9 1 9 9 0 17 -3 19 -12 6z"/>
<path d="M1360 2170 c-8 -26 -7 -41 2 -32 6 6 8 16 5 24 -3 7 -6 11 -7 8z"/>
<path d="M2295 2160 c-3 -5 -1 -10 4 -10 6 0 11 5 11 10 0 6 -2 10 -4 10 -3 0
-8 -4 -11 -10z"/>
<path d="M290 2141 c0 -6 4 -13 10 -16 6 -3 7 1 4 9 -7 18 -14 21 -14 7z"/>
<path d="M1062 2126 c-8 -19 -8 -27 3 -36 8 -7 12 -17 8 -23 -4 -6 -1 -7 7 -2
10 6 12 4 7 -9 -5 -13 -3 -17 7 -13 7 3 19 0 26 -6 10 -9 11 -9 6 0 -9 16 12
27 28 14 10 -8 17 -6 30 8 10 11 24 17 32 14 8 -3 14 0 14 6 0 6 -3 10 -7 10
-26 -4 -33 2 -24 19 7 14 6 19 -3 19 -8 0 -12 -11 -10 -30 3 -24 1 -27 -10
-18 -8 7 -13 19 -11 29 1 9 0 11 -2 4 -3 -7 -10 -9 -16 -5 -8 4 -7 1 1 -9 8
-10 9 -19 3 -22 -5 -4 -13 3 -16 15 -4 11 -9 18 -12 15 -4 -3 -12 2 -20 12
-13 15 -13 15 -3 -5 6 -13 15 -23 20 -23 6 0 10 -8 10 -17 0 -14 -7 -10 -31
15 -25 27 -29 36 -19 47 7 8 8 15 3 15 -5 0 -15 -11 -21 -24z m34 -48 l29 -33
-32 29 c-31 28 -38 36 -30 36 2 0 16 -15 33 -32z m78 -19 c-3 -5 -10 -7 -15
-3 -5 3 -7 10 -3 15 3 5 10 7 15 3 5 -3 7 -10 3 -15z"/>
<path d="M1100 2146 c0 -2 7 -9 15 -16 9 -7 15 -8 15 -2 0 5 -7 12 -15 16 -8
3 -15 4 -15 2z"/>
<path d="M2115 2130 c-4 -6 -10 -8 -15 -5 -17 11 -19 -13 -2 -28 13 -12 21
-13 32 -6 13 9 12 10 -2 5 -10 -3 -20 -1 -23 4 -4 6 -2 10 3 10 6 0 12 7 16
15 6 17 0 20 -9 5z"/>
<path d="M2175 2089 c-4 -6 -5 -12 -2 -15 2 -3 7 2 10 11 7 17 1 20 -8 4z"/>
<path d="M2210 2081 c0 -6 4 -13 10 -16 6 -3 7 1 4 9 -7 18 -14 21 -14 7z"/>
<path d="M350 2034 c0 -9 -5 -12 -12 -8 -7 4 -8 3 -4 -4 10 -16 14 -15 26 8 7
14 7 20 0 20 -5 0 -10 -7 -10 -16z"/>
<path d="M1975 2000 c3 -5 8 -10 11 -10 2 0 4 5 4 10 0 6 -5 10 -11 10 -5 0
-7 -4 -4 -10z"/>
<path d="M380 1960 c-9 -6 -10 -10 -3 -10 6 0 15 5 18 10 8 12 4 12 -15 0z"/>
<path d="M1783 1932 c0 -21 2 -29 7 -22 5 7 6 19 3 27 -3 7 0 13 6 13 6 0 11
-4 11 -10 0 -5 5 -10 10 -10 6 0 6 7 -1 18 -18 29 -35 22 -36 -16z"/>
<path d="M1850 1960 c0 -5 5 -10 10 -10 6 0 10 5 10 10 0 6 -4 10 -10 10 -5 0
-10 -4 -10 -10z"/>
<path d="M413 1935 c0 -8 4 -12 9 -9 5 3 6 10 3 15 -9 13 -12 11 -12 -6z"/>
<path d="M1743 1935 c-8 -9 -7 -16 7 -27 16 -14 18 -14 18 8 0 29 -9 36 -25
19z"/>
<path d="M1886 1942 c-3 -5 1 -9 9 -9 8 0 12 4 9 9 -3 4 -7 8 -9 8 -2 0 -6 -4
-9 -8z"/>
<path d="M435 1921 c-3 -5 -2 -12 3 -15 5 -3 9 1 9 9 0 17 -3 19 -12 6z"/>
<path d="M514 1878 c-4 -6 -3 -8 4 -4 5 3 13 0 15 -6 3 -8 6 -6 6 5 1 19 -14
23 -25 5z"/>
<path d="M590 1881 c0 -6 5 -11 11 -11 5 0 7 -6 3 -12 -5 -9 -3 -9 9 1 15 12
17 10 14 -16 -3 -22 0 -29 13 -29 10 0 16 6 13 13 -3 7 -10 13 -17 13 -7 0 -7
3 -1 8 17 12 15 30 -3 27 -9 -1 -23 2 -29 8 -9 6 -13 6 -13 -2z"/>
<path d="M1776 1875 c-9 -26 -7 -32 5 -12 6 10 9 21 6 23 -2 3 -7 -2 -11 -11z"/>
<path d="M1746 1863 c-6 -14 -5 -15 5 -6 7 7 10 15 7 18 -3 3 -9 -2 -12 -12z"/>
<path d="M595 1830 c-4 -6 -11 -7 -17 -4 -7 4 -8 2 -4 -4 7 -12 36 -5 36 9 0
12 -7 11 -15 -1z"/>
<path d="M866 1814 c-9 -23 -8 -27 8 -21 22 9 27 -5 8 -20 -15 -13 -15 -13 4
-4 12 6 25 7 30 3 5 -4 -1 5 -14 19 -12 14 -19 29 -15 32 3 4 2 7 -4 7 -6 0
-14 -7 -17 -16z"/>
<path d="M656 1782 c-3 -5 1 -9 9 -9 8 0 12 4 9 9 -3 4 -7 8 -9 8 -2 0 -6 -4
-9 -8z"/>
<path d="M1632 1762 c-7 -21 -7 -29 2 -29 6 0 11 13 12 29 1 35 -1 35 -14 0z"/>
<path d="M852 1756 c1 -14 5 -23 9 -20 7 4 0 44 -7 44 -2 0 -3 -11 -2 -24z"/>
<path d="M1053 1767 c0 -8 6 -14 14 -14 9 0 10 4 2 14 -6 7 -12 13 -14 13 -1
0 -2 -6 -2 -13z"/>
<path d="M1672 1771 c-11 -7 -11 -9 0 -14 9 -3 15 1 15 9 0 8 -1 14 -1 14 -1
0 -7 -4 -14 -9z"/>
<path d="M730 1759 c0 -5 5 -7 10 -4 6 3 10 8 10 11 0 2 -4 4 -10 4 -5 0 -10
-5 -10 -11z"/>
<path d="M1565 1760 c-4 -6 -10 -8 -14 -5 -5 2 -17 -5 -27 -16 -15 -17 -16
-22 -4 -29 10 -6 21 -4 32 7 17 15 20 15 41 -3 22 -19 22 -19 5 2 -10 11 -18
24 -18 29 0 4 8 1 18 -6 14 -11 13 -10 -2 9 -22 25 -23 26 -31 12z m-5 -25
c-23 -25 -50 -25 -29 1 6 7 15 12 19 9 5 -3 11 -1 15 5 3 5 9 10 12 10 4 0 -4
-11 -17 -25z"/>
<path d="M813 1745 c0 -8 4 -12 9 -9 5 3 6 10 3 15 -9 13 -12 11 -12 -6z"/>
<path d="M770 1746 c0 -2 7 -7 16 -10 8 -3 12 -2 9 4 -6 10 -25 14 -25 6z"/>
<path d="M1555 1700 c-3 -6 1 -7 9 -4 18 7 21 14 7 14 -6 0 -13 -4 -16 -10z"/>
</g>
</svg>
